<svg width="20" height="20" viewBox="0 0 20 20" fill="none" xmlns="http://www.w3.org/2000/svg">
<path d="M18.3334 5.41663H13.3334" stroke="#18181C" stroke-width="1.5" stroke-miterlimit="10" stroke-linecap="round" stroke-linejoin="round"/>
<path d="M4.99996 5.41663H1.66663" stroke="#18181C" stroke-width="1.5" stroke-miterlimit="10" stroke-linecap="round" stroke-linejoin="round"/>
<path d="M8.33329 8.33333C7.75643 8.33333 7.19252 8.16228 6.71288 7.84179C6.23324 7.5213 5.8594 7.06578 5.63865 6.53283C5.41789 5.99988 5.36013 5.41343 5.47267 4.84765C5.58521 4.28188 5.863 3.76218 6.2709 3.35427C6.6788 2.94637 7.1985 2.66858 7.76428 2.55604C8.33006 2.4435 8.9165 2.50126 9.44945 2.72202C9.98241 2.94277 10.4379 3.31661 10.7584 3.79625C11.0789 4.2759 11.25 4.83981 11.25 5.41667C11.25 6.19022 10.9427 6.93208 10.3957 7.47906C9.84871 8.02604 9.10684 8.33333 8.33329 8.33333V8.33333Z" stroke="#18181C" stroke-width="1.5" stroke-miterlimit="10" stroke-linecap="round" stroke-linejoin="round"/>
<path d="M18.3333 14.5834H15" stroke="#18181C" stroke-width="1.5" stroke-miterlimit="10" stroke-linecap="round" stroke-linejoin="round"/>
<path d="M6.66663 14.5834H1.66663" stroke="#18181C" stroke-width="1.5" stroke-miterlimit="10" stroke-linecap="round" stroke-linejoin="round"/>
<path d="M11.6667 17.5C11.0898 17.5 10.5259 17.3289 10.0463 17.0084C9.56661 16.6879 9.19277 16.2324 8.97202 15.6995C8.75126 15.1665 8.6935 14.5801 8.80604 14.0143C8.91858 13.4485 9.19637 12.9288 9.60427 12.5209C10.0122 12.113 10.5319 11.8352 11.0977 11.7227C11.6634 11.6101 12.2499 11.6679 12.7828 11.8886C13.3158 12.1094 13.7713 12.4832 14.0918 12.9629C14.4123 13.4425 14.5833 14.0064 14.5833 14.5833C14.5833 15.3568 14.276 16.0987 13.7291 16.6457C13.1821 17.1927 12.4402 17.5 11.6667 17.5V17.5Z" stroke="#18181C" stroke-width="1.5" stroke-miterlimit="10" stroke-linecap="round" stroke-linejoin="round"/>
</svg>
