<svg width="29" height="28" viewBox="0 0 29 28" fill="none" xmlns="http://www.w3.org/2000/svg">
<path d="M7.04377 11.5141C6.82185 11.5126 6.60944 11.4238 6.45252 11.2669C6.29559 11.1099 6.20679 10.8975 6.20532 10.6756C6.20679 10.4537 6.29559 10.2413 6.45252 10.0844C6.60944 9.92743 6.82185 9.83862 7.04377 9.83716H10.923C11.1454 9.83716 11.3586 9.92549 11.5159 10.0827C11.6731 10.24 11.7614 10.4532 11.7614 10.6756C11.7614 10.898 11.6731 11.1112 11.5159 11.2685C11.3586 11.4257 11.1454 11.5141 10.923 11.5141H7.04377Z" fill="#101010" stroke="white" stroke-width="0.4"/>
<path d="M7.04377 15.9857C6.82185 15.9843 6.60944 15.8955 6.45252 15.7385C6.29559 15.5816 6.20679 15.3692 6.20532 15.1473C6.20679 14.9254 6.29559 14.713 6.45252 14.556C6.60944 14.3991 6.82185 14.3103 7.04377 14.3088H10.923C11.1454 14.3088 11.3586 14.3972 11.5159 14.5544C11.6731 14.7117 11.7614 14.9249 11.7614 15.1473C11.7614 15.3697 11.6731 15.5829 11.5159 15.7402C11.3586 15.8974 11.1454 15.9857 10.923 15.9857H7.04377Z" fill="#101010" stroke="white" stroke-width="0.4"/>
<path fill-rule="evenodd" clip-rule="evenodd" d="M5.45834 26.047H14.8713C14.8874 26.047 14.9035 26.0465 14.9195 26.0455H21.9259C24.7811 26.0455 26.297 24.5341 26.3082 21.6755V17.4498C26.3151 17.3714 26.3113 17.2924 26.297 17.215C26.3415 16.2377 26.0148 15.2797 25.3824 14.5332C24.75 13.7868 23.8587 13.3071 22.8873 13.1904L20.6863 12.6988C20.6598 12.69 20.6328 12.6826 20.6053 12.6765L15.7098 11.5777V8.89902C15.6709 8.10326 15.4284 7.33079 15.0057 6.65551C14.5829 5.98023 13.9939 5.42473 13.295 5.04215L8.32919 2.60394C7.60376 2.22409 6.80021 2.01746 5.98153 2.00025C5.30308 1.99218 4.63655 2.1788 4.06092 2.53798C3.45962 2.95535 2.97741 3.52216 2.6618 4.18258C2.3462 4.84301 2.20808 5.57425 2.26105 6.30429V22.8944C2.26784 23.7362 2.60831 24.5409 3.20773 25.1319C3.80714 25.723 4.61655 26.0521 5.45834 26.047ZM17.9111 20.4562C17.0996 20.4562 16.3185 20.1621 15.7102 19.633V24.3698H21.9259C23.8901 24.3698 24.6201 23.6398 24.6201 21.6755V20.0086C24.114 20.3015 23.5357 20.459 22.9418 20.4585C22.0523 20.4585 21.1993 20.1051 20.5703 19.4762C20.5193 19.4251 20.4701 19.3726 20.4227 19.3187C20.3778 19.3695 20.3313 19.4191 20.2832 19.4674C19.6545 20.0979 18.8015 20.4535 17.9111 20.4562ZM22.8137 14.8643C22.716 14.8444 22.6169 14.8309 22.517 14.8241L21.2649 14.5446V17.1047C21.2802 17.528 21.4552 17.9298 21.7546 18.2294C22.054 18.529 22.4558 18.7042 22.8791 18.7198C23.3024 18.7354 23.7159 18.5902 24.0365 18.3134C24.3571 18.0366 24.5611 17.6487 24.6075 17.2276C24.6285 16.9325 24.591 16.6361 24.4973 16.3554C24.418 16.118 24.2997 15.8958 24.1476 15.6978C24.1339 15.6804 24.12 15.6631 24.1058 15.6459C23.9099 15.4093 23.6684 15.2144 23.3957 15.0728C23.2116 14.9772 23.0158 14.9071 22.8137 14.8643ZM4.94409 3.96781C5.26054 3.7763 5.62517 3.67933 5.99495 3.68833C6.54936 3.70844 7.09205 3.85366 7.58241 4.11314L12.546 6.55024C12.9687 6.78809 13.3257 7.12704 13.5852 7.53676C13.8447 7.94647 13.9985 8.41415 14.0329 8.8979V24.3701H5.45834C5.0612 24.3755 4.67813 24.2232 4.39312 23.9465C4.10811 23.6699 3.94442 23.2915 3.93795 22.8944V6.30429C3.89192 5.86131 3.96024 5.41393 4.13639 5.00487C4.31254 4.59582 4.59063 4.23877 4.94409 3.96781ZM16.2342 13.4266V17.1046C16.2342 17.5494 16.4109 17.9759 16.7253 18.2904C17.0398 18.6049 17.4663 18.7815 17.9111 18.7815C18.3558 18.7815 18.7824 18.6049 19.0968 18.2904C19.4113 17.9759 19.588 17.5494 19.588 17.1046V14.1745L16.2342 13.4266Z" fill="#101010"/>
<path d="M14.8713 26.047V26.247H14.8716L14.8713 26.047ZM5.45834 26.047V25.847L5.45714 25.847L5.45834 26.047ZM14.9195 26.0455V25.8452L14.9078 25.8459L14.9195 26.0455ZM26.3082 21.6755L26.5082 21.6763V21.6755H26.3082ZM26.3082 17.4498L26.1089 17.4323L26.1082 17.441V17.4498H26.3082ZM26.297 17.215L26.0972 17.2059L26.0962 17.2288L26.1003 17.2513L26.297 17.215ZM22.8873 13.1904L22.8437 13.3856L22.8535 13.3878L22.8635 13.389L22.8873 13.1904ZM20.6863 12.6988L20.6238 12.8887L20.6331 12.8918L20.6427 12.8939L20.6863 12.6988ZM20.6053 12.6765L20.5615 12.8716L20.562 12.8717L20.6053 12.6765ZM15.7098 11.5777H15.5098V11.7378L15.666 11.7729L15.7098 11.5777ZM15.7098 8.89902H15.91L15.9095 8.88925L15.7098 8.89902ZM13.295 5.04215L13.3912 4.86654L13.3832 4.86262L13.295 5.04215ZM8.32919 2.60394L8.23639 2.78118L8.24104 2.78346L8.32919 2.60394ZM5.98153 2.00025L5.98574 1.80029L5.98391 1.80027L5.98153 2.00025ZM4.06092 2.53798L3.95492 2.3681L3.94688 2.37368L4.06092 2.53798ZM2.6618 4.18258L2.84226 4.26882L2.6618 4.18258ZM2.26105 6.30429H2.46105V6.29705L2.46053 6.28982L2.26105 6.30429ZM2.26105 22.8944H2.06104L2.06106 22.896L2.26105 22.8944ZM3.20773 25.1319L3.0673 25.2743H3.0673L3.20773 25.1319ZM15.7102 19.633L15.8414 19.4821L15.5102 19.194V19.633H15.7102ZM17.9111 20.4562V20.6562L17.9117 20.6562L17.9111 20.4562ZM15.7102 24.3698H15.5102V24.5698H15.7102V24.3698ZM24.6201 20.0086H24.8201V19.6617L24.5199 19.8355L24.6201 20.0086ZM22.9418 20.4585L22.942 20.2585H22.9418V20.4585ZM20.4227 19.3187L20.5729 19.1867L20.423 19.0162L20.2728 19.1863L20.4227 19.3187ZM20.2832 19.4674L20.4248 19.6086H20.4248L20.2832 19.4674ZM22.8137 14.8643L22.8552 14.6686L22.8537 14.6683L22.8137 14.8643ZM22.517 14.8241L22.4734 15.0193L22.4882 15.0226L22.5034 15.0236L22.517 14.8241ZM21.2649 14.5446L21.3085 14.3494L21.0649 14.295V14.5446H21.2649ZM21.2649 17.1047H21.0648L21.065 17.1119L21.2649 17.1047ZM21.7546 18.2294L21.8961 18.088L21.7546 18.2294ZM22.8791 18.7198L22.8864 18.5199L22.8791 18.7198ZM24.0365 18.3134L24.1672 18.4648L24.0365 18.3134ZM24.6075 17.2276L24.8065 17.2496L24.807 17.2418L24.6075 17.2276ZM24.4973 16.3554L24.3076 16.4188L24.3076 16.4188L24.4973 16.3554ZM24.1476 15.6978L24.3062 15.576L24.3052 15.5748L24.1476 15.6978ZM24.1058 15.6459L24.2599 15.5184V15.5184L24.1058 15.6459ZM23.3957 15.0728L23.4879 14.8953L23.3957 15.0728ZM5.99495 3.68833L6.0022 3.48845L5.99982 3.48839L5.99495 3.68833ZM4.94409 3.96781L4.84054 3.79671L4.83114 3.8024L4.82241 3.80908L4.94409 3.96781ZM7.58241 4.11314L7.48883 4.29L7.49427 4.29267L7.58241 4.11314ZM12.546 6.55024L12.6443 6.37567L12.6342 6.37071L12.546 6.55024ZM13.5852 7.53676L13.4163 7.64377L13.5852 7.53676ZM14.0329 8.8979H14.2329V8.8908L14.2324 8.88372L14.0329 8.8979ZM14.0329 24.3701V24.5701H14.2329V24.3701H14.0329ZM5.45834 24.3701V24.1701L5.45563 24.1701L5.45834 24.3701ZM4.39312 23.9465L4.53241 23.803H4.53241L4.39312 23.9465ZM3.93795 22.8944H3.73792L3.73798 22.8977L3.93795 22.8944ZM3.93795 6.30429H4.13795V6.29393L4.13688 6.28362L3.93795 6.30429ZM4.13639 5.00487L4.32008 5.08398L4.13639 5.00487ZM16.2342 13.4266L16.2777 13.2314L16.0342 13.1771V13.4266H16.2342ZM19.588 14.1745H19.788V14.0142L19.6315 13.9793L19.588 14.1745ZM14.8713 25.847H5.45834V26.247H14.8713V25.847ZM14.9078 25.8459C14.8956 25.8466 14.8833 25.847 14.8711 25.847L14.8716 26.247C14.8915 26.247 14.9114 26.2464 14.9312 26.2452L14.9078 25.8459ZM21.9259 25.8455H14.9195V26.2455H21.9259V25.8455ZM26.1082 21.6748C26.1027 23.0704 25.7305 24.1047 25.0423 24.7909C24.3542 25.477 23.3197 25.8455 21.9259 25.8455V26.2455C23.3873 26.2455 24.5383 25.8583 25.3248 25.0741C26.1112 24.29 26.5025 23.1393 26.5082 21.6763L26.1082 21.6748ZM26.1082 17.4498V21.6755H26.5082V17.4498H26.1082ZM26.1003 17.2513C26.1114 17.311 26.1143 17.3718 26.1089 17.4323L26.5074 17.4673C26.5159 17.3709 26.5113 17.2738 26.4937 17.1786L26.1003 17.2513ZM25.2298 14.6625C25.8296 15.3704 26.1394 16.279 26.0972 17.2059L26.4968 17.2241C26.5436 16.1963 26.2 15.1889 25.535 14.4039L25.2298 14.6625ZM22.8635 13.389C23.7847 13.4996 24.63 13.9546 25.2298 14.6625L25.535 14.4039C24.8699 13.619 23.9326 13.1145 22.9112 12.9919L22.8635 13.389ZM20.6427 12.8939L22.8437 13.3856L22.9309 12.9952L20.7299 12.5036L20.6427 12.8939ZM20.562 12.8717C20.583 12.8764 20.6036 12.8821 20.6238 12.8887L20.7489 12.5088C20.716 12.498 20.6826 12.4888 20.6486 12.4812L20.562 12.8717ZM15.666 11.7729L20.5615 12.8716L20.6491 12.4813L15.7536 11.3826L15.666 11.7729ZM15.5098 8.89902V11.5777H15.9098V8.89902H15.5098ZM14.8361 6.76164C15.2408 7.40791 15.4728 8.1472 15.51 8.90878L15.9095 8.88925C15.869 8.05931 15.6161 7.25366 15.1752 6.54938L14.8361 6.76164ZM13.199 5.21758C13.8678 5.58373 14.4315 6.11537 14.8361 6.76164L15.1752 6.54938C14.7342 5.84509 14.1199 5.26573 13.3911 4.86672L13.199 5.21758ZM8.24104 2.78346L13.2069 5.22167L13.3832 4.86262L8.41734 2.42441L8.24104 2.78346ZM5.97733 2.20021C6.76512 2.21677 7.53836 2.4156 8.23642 2.78112L8.42197 2.42675C7.66917 2.03258 6.8353 1.81816 5.98574 1.8003L5.97733 2.20021ZM4.1668 2.70765C4.70998 2.36872 5.33895 2.19262 5.97915 2.20024L5.98391 1.80027C5.26722 1.79174 4.56312 1.98887 3.95505 2.3683L4.1668 2.70765ZM2.84226 4.26882C3.14288 3.63974 3.6022 3.09984 4.17496 2.70228L3.94688 2.37368C3.31703 2.81086 2.81194 3.40458 2.48135 4.09635L2.84226 4.26882ZM2.46053 6.28982C2.41007 5.59443 2.54163 4.89789 2.84226 4.26882L2.48135 4.09635C2.15076 4.78812 2.00609 5.55407 2.06157 6.31877L2.46053 6.28982ZM2.46105 22.8944V6.30429H2.06105V22.8944H2.46105ZM3.34815 24.9895C2.78645 24.4357 2.46741 23.6816 2.46104 22.8928L2.06106 22.896C2.06828 23.7908 2.43017 24.6461 3.0673 25.2743L3.34815 24.9895ZM5.45714 25.847C4.66832 25.8517 3.90985 25.5434 3.34815 24.9895L3.0673 25.2743C3.70444 25.9026 4.56479 26.2524 5.45954 26.247L5.45714 25.847ZM15.5789 19.7839C16.2235 20.3446 17.0512 20.6562 17.9111 20.6562V20.2562C17.148 20.2562 16.4135 19.9797 15.8414 19.4821L15.5789 19.7839ZM15.9102 24.3698V19.633H15.5102V24.3698H15.9102ZM21.9259 24.1698H15.7102V24.5698H21.9259V24.1698ZM24.4201 21.6755C24.4201 22.6415 24.2389 23.2471 23.8681 23.6178C23.4974 23.9885 22.8918 24.1698 21.9259 24.1698V24.5698C22.9242 24.5698 23.6656 24.386 24.151 23.9007C24.6363 23.4153 24.8201 22.6738 24.8201 21.6755H24.4201ZM24.4201 20.0086V21.6755H24.8201V20.0086H24.4201ZM24.5199 19.8355C24.0441 20.1109 23.5004 20.259 22.942 20.2585L22.9416 20.6585C23.5711 20.659 24.184 20.4921 24.7203 20.1817L24.5199 19.8355ZM22.9418 20.2585C22.1054 20.2585 21.3032 19.9262 20.7117 19.3347L20.4289 19.6176C21.0954 20.2841 21.9993 20.6585 22.9418 20.6585V20.2585ZM20.7117 19.3347C20.6637 19.2867 20.6175 19.2374 20.5729 19.1867L20.2725 19.4508C20.3227 19.5079 20.3748 19.5635 20.4289 19.6176L20.7117 19.3347ZM20.4248 19.6086C20.4758 19.5575 20.5251 19.5049 20.5726 19.4511L20.2728 19.1863C20.2306 19.2341 20.1868 19.2808 20.1416 19.3262L20.4248 19.6086ZM17.9117 20.6562C18.855 20.6534 19.7588 20.2766 20.4248 19.6086L20.1416 19.3262C19.5503 19.9192 18.748 20.2537 17.9105 20.2562L17.9117 20.6562ZM22.8537 14.6683C22.7473 14.6466 22.6394 14.632 22.5306 14.6245L22.5034 15.0236C22.5944 15.0298 22.6847 15.0421 22.7737 15.0603L22.8537 14.6683ZM22.5606 14.6289L21.3085 14.3494L21.2213 14.7398L22.4734 15.0193L22.5606 14.6289ZM21.0649 14.5446V17.1047H21.4649V14.5446H21.0649ZM21.065 17.1119C21.0822 17.5857 21.278 18.0355 21.6131 18.3708L21.8961 18.088C21.6324 17.8242 21.4783 17.4703 21.4648 17.0974L21.065 17.1119ZM21.6131 18.3708C21.9483 18.7061 22.3979 18.9022 22.8717 18.9197L22.8864 18.5199C22.5136 18.5062 22.1598 18.3519 21.8961 18.088L21.6131 18.3708ZM22.8717 18.9197C23.3455 18.9371 23.8083 18.7746 24.1672 18.4648L23.9058 18.162C23.6234 18.4058 23.2592 18.5336 22.8864 18.5199L22.8717 18.9197ZM24.1672 18.4648C24.5261 18.1549 24.7544 17.7208 24.8063 17.2495L24.4087 17.2057C24.3679 17.5766 24.1882 17.9182 23.9058 18.162L24.1672 18.4648ZM24.807 17.2418C24.8299 16.9204 24.7891 16.5976 24.687 16.292L24.3076 16.4188C24.393 16.6745 24.4271 16.9445 24.408 17.2135L24.807 17.2418ZM24.687 16.292C24.6006 16.0335 24.4718 15.7916 24.3062 15.576L23.989 15.8197C24.1275 16.0001 24.2353 16.2025 24.3076 16.4188L24.687 16.292ZM23.9518 15.7735C23.9647 15.7891 23.9774 15.8049 23.9899 15.8209L24.3052 15.5748C24.2904 15.5558 24.2753 15.537 24.2599 15.5184L23.9518 15.7735ZM23.3035 15.2503C23.5524 15.3796 23.7729 15.5575 23.9518 15.7735L24.2599 15.5184C24.0468 15.2611 23.7843 15.0492 23.4879 14.8953L23.3035 15.2503ZM22.7722 15.0599C22.9567 15.0991 23.1354 15.163 23.3035 15.2503L23.4879 14.8953C23.2877 14.7913 23.0748 14.7152 22.8552 14.6686L22.7722 15.0599ZM5.99982 3.48839C5.59189 3.47846 5.18964 3.58544 4.84054 3.79671L5.04764 4.13892C5.33144 3.96717 5.65845 3.8802 5.99008 3.88827L5.99982 3.48839ZM7.67596 3.93637C7.15894 3.66278 6.58675 3.50966 6.00219 3.48846L5.9877 3.8882C6.51198 3.90721 7.02517 4.04454 7.48887 4.28992L7.67596 3.93637ZM12.6342 6.37071L7.67056 3.93362L7.49427 4.29267L12.4579 6.72977L12.6342 6.37071ZM13.7542 7.42975C13.477 6.99209 13.0956 6.63001 12.6441 6.37594L12.4479 6.72453C12.8418 6.94616 13.1745 7.262 13.4163 7.64377L13.7542 7.42975ZM14.2324 8.88372C14.1957 8.36698 14.0314 7.8674 13.7542 7.42975L13.4163 7.64377C13.658 8.02554 13.8014 8.46131 13.8334 8.91207L14.2324 8.88372ZM14.2329 24.3701V8.8979H13.8329V24.3701H14.2329ZM5.45834 24.5701H14.0329V24.1701H5.45834V24.5701ZM4.25382 24.09C4.57683 24.4035 5.01096 24.5762 5.46105 24.5701L5.45563 24.1701C5.11143 24.1748 4.77943 24.0428 4.53241 23.803L4.25382 24.09ZM3.73798 22.8977C3.74531 23.3478 3.93082 23.7765 4.25382 24.09L4.53241 23.803C4.2854 23.5633 4.14353 23.2353 4.13792 22.8912L3.73798 22.8977ZM3.73795 6.30429V22.8944H4.13795V6.30429H3.73795ZM3.9527 4.92577C3.76303 5.36623 3.68946 5.84797 3.73902 6.32496L4.13688 6.28362C4.09438 5.87465 4.15746 5.46162 4.32008 5.08398L3.9527 4.92577ZM4.82241 3.80908C4.44181 4.10084 4.14237 4.48531 3.9527 4.92577L4.32008 5.08398C4.48271 4.70633 4.73944 4.37669 5.06577 4.12654L4.82241 3.80908ZM16.4342 17.1046V13.4266H16.0342V17.1046H16.4342ZM16.8668 18.1489C16.5898 17.872 16.4342 17.4963 16.4342 17.1046H16.0342C16.0342 17.6024 16.2319 18.0798 16.5839 18.4318L16.8668 18.1489ZM17.9111 18.5815C17.5194 18.5815 17.1437 18.4259 16.8668 18.1489L16.5839 18.4318C16.9359 18.7838 17.4133 18.9815 17.9111 18.9815V18.5815ZM18.9554 18.1489C18.6784 18.4259 18.3028 18.5815 17.9111 18.5815V18.9815C18.4089 18.9815 18.8863 18.7838 19.2383 18.4318L18.9554 18.1489ZM19.388 17.1046C19.388 17.4963 19.2324 17.872 18.9554 18.1489L19.2383 18.4318C19.5902 18.0798 19.788 17.6024 19.788 17.1046H19.388ZM19.388 14.1745V17.1046H19.788V14.1745H19.388ZM16.1907 13.6218L19.5445 14.3697L19.6315 13.9793L16.2777 13.2314L16.1907 13.6218Z" fill="white"/>
</svg>
