<svg width="29" height="28" viewBox="0 0 29 28" fill="none" xmlns="http://www.w3.org/2000/svg">
<path d="M20.1 25.2001H10.5C7.8 25.2001 5.5 23 5.5 20.2V11.1V10.3C5.5 7.60005 7.7 5.30005 10.5 5.30005H20.1C22.8 5.30005 25.1 7.50005 25.1 10.3V20.2C25.1 23 22.8 25.2001 20.1 25.2001Z" stroke="#101010" stroke-width="1.3" stroke-miterlimit="10"/>
<path d="M19.9001 3V6.5" stroke="#101010" stroke-width="1.3" stroke-miterlimit="10" stroke-linecap="round"/>
<path d="M10.6001 3V6.5" stroke="#101010" stroke-width="1.3" stroke-miterlimit="10" stroke-linecap="round"/>
<path d="M5.5 11.1001H25.3" stroke="#101010" stroke-width="1.3" stroke-miterlimit="10"/>
<path d="M15.4 17.8C15.9523 17.8 16.4 17.3523 16.4 16.8C16.4 16.2478 15.9523 15.8 15.4 15.8C14.8477 15.8 14.4 16.2478 14.4 16.8C14.4 17.3523 14.8477 17.8 15.4 17.8Z" fill="#101010" stroke="#101010" stroke-width="0.1"/>
<path d="M11.3 17.8C11.8523 17.8 12.3 17.3523 12.3 16.8C12.3 16.2478 11.8523 15.8 11.3 15.8C10.7478 15.8 10.3 16.2478 10.3 16.8C10.3 17.3523 10.7478 17.8 11.3 17.8Z" fill="#101010" stroke="#101010" stroke-width="0.1"/>
<path d="M11.3 21.9001C11.8523 21.9001 12.3 21.4524 12.3 20.9001C12.3 20.3479 11.8523 19.9001 11.3 19.9001C10.7478 19.9001 10.3 20.3479 10.3 20.9001C10.3 21.4524 10.7478 21.9001 11.3 21.9001Z" fill="#101010" stroke="#101010" stroke-width="0.1"/>
</svg>
