<svg width="29" height="28" viewBox="0 0 29 28" fill="none" xmlns="http://www.w3.org/2000/svg">
<path d="M5.42042 7.54266C5.41794 8.98797 5.98223 10.3766 6.99215 11.4106C8.00207 12.4445 9.37712 13.0412 10.8221 13.0727C10.9072 13.0609 10.9936 13.0609 11.0788 13.0727H11.1604C12.2466 13.033 13.2972 12.6747 14.1812 12.0422C15.0651 11.4097 15.7435 10.5311 16.1316 9.51583C16.5197 8.50055 16.6006 7.3935 16.3639 6.33262C16.1273 5.27175 15.5838 4.30395 14.801 3.54982C14.0183 2.79568 13.0309 2.28857 11.9619 2.09165C10.893 1.89473 9.78969 2.01672 8.78958 2.44241C7.78947 2.86811 6.93673 3.57869 6.33763 4.48562C5.73852 5.39254 5.41954 6.45572 5.42042 7.54266Z" fill="#1087F4"/>
<path d="M5.04833 16.1748C4.38032 16.5603 3.81981 17.1073 3.41824 17.7657C3.01666 18.4241 2.78689 19.1728 2.75 19.9432C2.78602 20.7092 3.01438 21.4538 3.41402 22.1083C3.81366 22.7629 4.37171 23.3062 5.03667 23.6882C6.81052 24.8005 8.86994 25.3721 10.9633 25.3332C13.0567 25.3721 15.1161 24.8005 16.89 23.6882C17.556 23.3015 18.1143 22.7539 18.5138 22.0956C18.9133 21.4372 19.1412 20.6891 19.1767 19.9198C19.1382 19.1544 18.9088 18.4107 18.5095 17.7566C18.1101 17.1025 17.5533 16.5587 16.89 16.1748C15.0987 15.1096 13.0532 14.5474 10.9692 14.5474C8.88509 14.5474 6.83961 15.1096 5.04833 16.1748Z" fill="#1087F4"/>
<path d="M20.1309 12.7436H20.0726C20.0056 12.7391 19.9384 12.747 19.8743 12.7669C18.8026 12.8347 17.7459 12.488 16.9226 11.7986C17.5378 11.2457 18.0161 10.5574 18.3198 9.78808C18.6235 9.01871 18.7443 8.1893 18.6726 7.36528C18.5925 6.45529 18.2835 5.58037 17.7743 4.82194C18.3208 4.55608 18.9186 4.41233 19.5262 4.40067C20.1339 4.38902 20.7367 4.50974 21.293 4.75446C21.8493 4.99918 22.3457 5.36203 22.7477 5.81782C23.1497 6.27362 23.4477 6.81144 23.621 7.39395C23.7943 7.97646 23.8387 8.58971 23.7512 9.19112C23.6638 9.79254 23.4465 10.3677 23.1144 10.8767C22.7823 11.3857 22.3435 11.8164 21.8283 12.1387C21.3131 12.4611 20.7339 12.6675 20.1309 12.7436Z" fill="#1087F4"/>
<path d="M24.0848 21.7993C22.8213 22.4511 21.4105 22.7646 19.9898 22.7093C20.7904 22.0203 21.2992 21.0528 21.4132 20.0027C21.4439 19.2349 21.2816 18.4717 20.9413 17.7828C20.6009 17.094 20.0933 16.5014 19.4648 16.0593C18.6544 15.4295 17.7486 14.9332 16.7815 14.5893C18.103 14.2131 19.4925 14.1405 20.8461 14.3769C22.1997 14.6133 23.4823 15.1525 24.5982 15.9543C25.0895 16.2961 25.4862 16.7568 25.7514 17.2933C26.0166 17.8298 26.1416 18.4248 26.1148 19.0227C26.0392 19.6195 25.8132 20.1873 25.4581 20.673C25.1031 21.1586 24.6306 21.5462 24.0848 21.7993Z" fill="#1087F4"/>
</svg>
