<svg width="29" height="28" viewBox="0 0 29 28" fill="none" xmlns="http://www.w3.org/2000/svg">
<path d="M14.5 16.5C14.3 16.5 14.1 16.6 13.9 16.7C13.7 16.9 13.7 17.1 13.7 17.3V21.3C13.7 21.5 13.8 21.7 13.9 21.9C14.1 22.1 14.3 22.1 14.5 22.1C14.7 22.1 14.9 22 15.1 21.9C15.3 21.7 15.3 21.5 15.3 21.3V17.3C15.3 17.1 15.2 16.9 15.1 16.7C14.9 16.6 14.7 16.5 14.5 16.5Z" fill="#18181C"/>
<path d="M24.7999 22.2999L26.2999 13.3C26.4 12.6 26.2999 11.8 26 11.1C25.7 10.4 25.2999 9.79995 24.7999 9.29995L17.1 2.99995C16.4 2.49995 15.5 2.19995 14.5 2.19995H14.4C13.5 2.19995 12.6 2.49995 11.9 3.09995L4.19995 9.29995C3.69995 9.79995 3.19995 10.4 2.99995 11.1C2.69995 11.8 2.69995 12.5 2.69995 13.3L4.19995 22.2999C4.39995 23.2999 4.89995 24.1999 5.59995 24.7999C6.29995 25.4 7.29995 25.7999 8.29995 25.7999H20.7999C21.7999 25.7999 22.6999 25.4 23.4 24.7999C24.1 24.1999 24.5999 23.2999 24.7999 22.2999ZM20.7999 24.4H8.29995C7.69995 24.4 6.99995 24.1 6.49995 23.7C5.99995 23.3 5.69995 22.7 5.49995 22.1L3.99995 13.1C3.99995 12.6 3.99995 12.1 4.19995 11.7C4.39995 11.2 4.59995 10.8 4.99995 10.5L12.8 4.19995C13.3 3.79995 13.9 3.59995 14.5 3.59995H14.6C15.2 3.59995 15.8 3.79995 16.3 4.19995L24 10.5C24.4 10.8 24.5999 11.3 24.7999 11.7C25 12.2 25 12.6 25 13.1L23.5 22.1C23.4 22.7 23 23.3 22.5 23.7C22 24.2 21.4 24.4 20.7999 24.4Z" fill="#18181C"/>
</svg>
